<svg xmlns:xlink="http://www.w3.org/1999/xlink" xmlns="http://www.w3.org/2000/svg" version="1.1" viewBox="0 0 32 32" class="tile-icon svg-icon svg-fill" width="46"  height="46" ><circle pid="0" cx="30" cy="30" r="2" fill="#E6E6E6"></circle><circle pid="1" cx="2" cy="30" r="2" fill="#E6E6E6"></circle><circle pid="2" cx="30" cy="2" r="2" fill="#E6E6E6"></circle><circle pid="3" cx="2" cy="2" r="2" fill="#E6E6E6"></circle><path pid="4" d="M16.5 12.5V23H20zM15.5 12.5L12 23h3.5z" fill="#E6E6E6"></path><path pid="5" d="M15 12h2v2h-2zM15 23h2v1h-2zM20 20h1v4h-1zM11 20h1v4h-1z" fill="#E6E6E6"></path><path pid="6" d="M15.5 8h1v5h-1z" fill="#E6E6E6"></path><g fill="#E6E6E6"><path pid="7" d="M3 12.254H2v-4.29l3.72-2.136.498.867L3 8.543zM19.221 2.926L16 1.077l-3.22 1.849-.498-.867L16-.077l3.718 2.136zM30 12.254h-1V8.543l-3.218-1.848.497-.867L30 7.964zM26.279 26.173l-.497-.866L29 23.458v-3.71h1v4.29zM16 32.077l-3.718-2.136.498-.866L16 30.923l3.221-1.848.497.866zM5.72 26.173L2 24.038v-4.29h1v3.71l3.218 1.849z" fill="#E6E6E6"></path></g></svg>