<svg xmlns:xlink="http://www.w3.org/1999/xlink" xmlns="http://www.w3.org/2000/svg" version="1.1" viewBox="0 0 32 32" class="tile-icon svg-icon svg-fill" width="46"  height="46" ><circle pid="0" cx="30" cy="2" r="2" fill="#E6E6E6"></circle><circle pid="1" cx="30" cy="30" r="2" fill="#E6E6E6"></circle><circle pid="2" cx="2" cy="2" r="2" fill="#E6E6E6"></circle><path pid="3" d="M21 8h1v16h-1zM10 8h1v16h-1zM14 26h4v1h-4zM7 17h3v1H7zM8 14h2v1H8zM22 17h3v1h-3zM22 14h2v1h-2zM22 20h2v1h-2zM8 20h2v1H8z" fill="#E6E6E6"></path><g fill="#E6E6E6"><path pid="4" d="M15.5 6H15l-1 1c-1 1-1 3-1 3l-1 1v13l2 1h1.5V6zM19 10s0-2-1-3l-1-1h-.5v19H18l2-1V11l-1-1z" fill="#E6E6E6"></path></g><g fill="#E6E6E6"><path pid="5" d="M3 10.254H2V7.965l1.985-1.141.498.867L3 8.543zM5.737 6.971l-.498-.867 7.524-4.32.498.867zM17.484 1.93L16 1.077l-1.485.853-.498-.867L16-.077l1.982 1.14zM26.262 6.971L18.74 2.65l.498-.867 7.523 4.321zM30 10.254h-1V8.543l-1.482-.852.498-.867L30 7.965zM29 11.69h1v8.621h-1zM28.016 25.178l-.498-.867L29 23.459v-1.711h1v2.289zM19.237 30.217l-.498-.867 7.525-4.32.498.866zM16 32.076l-1.983-1.138.498-.868 1.485.854 1.484-.854.498.868zM12.763 30.218l-7.524-4.32.498-.868 7.524 4.321zM3.985 25.178L2 24.037v-2.289h1v1.711l1.483.852zM2 11.691h1v8.62H2z" fill="#E6E6E6"></path></g></svg>