<?xml version="1.0" standalone="no"?>
<!DOCTYPE svg PUBLIC "-//W3C//DTD SVG 20010904//EN"
 "http://www.w3.org/TR/2001/REC-SVG-20010904/DTD/svg10.dtd">
<svg version="1.0" xmlns="http://www.w3.org/2000/svg"
 width="68.000000pt" height="68.000000pt" viewBox="0 0 68.000000 68.000000"
 preserveAspectRatio="xMidYMid meet">

<g transform="translate(0.000000,68.000000) scale(0.100000,-0.100000)"
fill="#000000" stroke="none">
<path d="M0 340 l0 -340 340 0 340 0 0 340 0 340 -340 0 -340 0 0 -340z m444
223 c40 -20 94 -70 112 -104 99 -189 -75 -412 -276 -353 -30 8 -74 16 -98 17
-50 2 -65 19 -58 63 5 34 0 44 -29 60 -22 13 -22 20 -2 114 16 79 35 115 79
156 59 56 115 76 192 68 27 -3 63 -12 80 -21z"/>
<path d="M280 561 c-97 -31 -153 -97 -166 -195 -6 -38 -4 -46 15 -55 22 -12
29 -45 11 -56 -15 -9 1 -37 18 -30 25 9 62 -22 62 -54 0 -37 42 -56 126 -56
79 0 145 38 189 109 25 42 30 59 30 116 0 57 -5 74 -30 116 -40 64 -104 104
-176 109 -30 3 -65 1 -79 -4z"/>
<path d="M90 281 c0 -26 17 -36 35 -21 18 15 8 40 -16 40 -12 0 -19 -7 -19
-19z"/>
<path d="M140 191 c-12 -23 -5 -47 16 -55 22 -8 54 11 54 32 0 41 -51 57 -70
23z"/>
</g>
</svg>
